<svg width="127" height="171" viewBox="0 0 127 171" fill="none" xmlns="http://www.w3.org/2000/svg">
<g clip-path="url(#clip0_1032_49)">
<path fill-rule="evenodd" clip-rule="evenodd" d="M50.4866 74.8237H100.267C101.636 74.8237 102.756 75.939 102.756 77.3022C102.756 78.6653 101.636 79.7806 100.267 79.7806H50.4866C49.1176 79.7806 47.9976 78.6653 47.9976 77.3022C47.9976 75.939 49.1176 74.8237 50.4866 74.8237Z" fill="#D6D6D6"/>
<path fill-rule="evenodd" clip-rule="evenodd" d="M50.4866 87.29H100.267C101.636 87.29 102.756 88.4053 102.756 89.7685C102.756 91.1316 101.636 92.2469 100.267 92.2469H50.4866C49.1176 92.2469 47.9976 91.1316 47.9976 89.7685C47.9976 88.4053 49.1176 87.29 50.4866 87.29Z" fill="#D6D6D6"/>
<path d="M123.814 31.1284H96.4844V2.82471H91.5063V30.8062C91.5063 33.5324 93.3731 36.0604 96.136 36.0604H123.814V31.1284Z" fill="#D6D6D6"/>
<path d="M122.022 33.8801V136.314H32.417V4.95686H92.9754L87.9973 0H32.0686C29.3306 0 27.439 3.07325 27.439 5.79952V136.016C27.439 138.742 29.3057 141.27 32.0686 141.27H122.321C125.059 141.27 127.001 138.742 127.001 136.016V38.8618L122.022 33.8801Z" fill="#D6D6D6"/>
<path d="M127 38.837L87.9971 0H95.2153L127 31.6495V38.837Z" fill="#D6D6D6"/>
<path fill-rule="evenodd" clip-rule="evenodd" d="M50.4866 99.7573H100.267C101.636 99.7573 102.756 100.873 102.756 102.236C102.756 103.599 101.636 104.714 100.267 104.714H50.4866C49.1176 104.714 47.9976 103.599 47.9976 102.236C47.9976 100.873 49.1176 99.7573 50.4866 99.7573Z" fill="#D6D6D6"/>
<path fill-rule="evenodd" clip-rule="evenodd" d="M50.4866 61.043H100.267C101.636 61.043 102.756 62.1583 102.756 63.5214C102.756 64.8845 101.636 65.9998 100.267 65.9998H50.4866C49.1176 65.9998 47.9976 64.8845 47.9976 63.5214C47.9976 62.1583 49.1176 61.043 50.4866 61.043Z" fill="#D6D6D6"/>
<path d="M107.81 138.271V151.63H18.2041V20.2733H30.5498V15.3164H17.8308C15.0928 15.3164 13.2012 18.3897 13.2012 21.1159V151.333C13.2012 154.059 15.068 156.587 17.8308 156.587H108.083C110.821 156.587 112.763 154.059 112.763 151.333V138.271H107.81Z" fill="#D6D6D6"/>
<path d="M95.0337 152.243V165.602H5.42826V34.2454H17.7739V29.2886H5.05491C2.31696 29.2886 0.425293 32.3618 0.425293 35.0881V165.305C0.425293 168.031 2.29207 170.559 5.05491 170.559H95.3075C98.0454 170.559 99.9869 168.031 99.9869 165.305V152.243H95.0337Z" fill="#D6D6D6"/>
</g>
<defs>
<clipPath id="clip0_1032_49">
<rect width="127" height="171" fill="white"/>
</clipPath>
</defs>
</svg>
