<svg width="151" height="185" viewBox="0 0 151 185" fill="none" xmlns="http://www.w3.org/2000/svg">
<g clip-path="url(#clip0_1032_38)">
<path fill-rule="evenodd" clip-rule="evenodd" d="M76.8743 73.1426H125.102C126.428 73.1426 127.513 74.2328 127.513 75.5653C127.513 76.8978 126.428 77.988 125.102 77.988H76.8743C75.548 77.988 74.4629 76.8978 74.4629 75.5653C74.4629 74.2328 75.548 73.1426 76.8743 73.1426Z" fill="#D6D6D6"/>
<path fill-rule="evenodd" clip-rule="evenodd" d="M76.8743 85.3281H125.102C126.428 85.3281 127.513 86.4184 127.513 87.7509C127.513 89.0834 126.428 90.1736 125.102 90.1736H76.8743C75.548 90.1736 74.4629 89.0834 74.4629 87.7509C74.4629 86.4184 75.548 85.3281 76.8743 85.3281Z" fill="#D6D6D6"/>
<path d="M147.913 30.4293H121.437V2.76172H116.614V30.1144C116.614 32.7794 118.422 35.2506 121.099 35.2506H147.913V30.4293Z" fill="#D6D6D6"/>
<path d="M146.177 33.1188V133.25H59.3682V4.84547H118.037L113.214 0H59.0306C56.378 0 54.5454 3.00419 54.5454 5.6692V132.96C54.5454 135.625 56.3539 138.096 59.0306 138.096H146.467C149.119 138.096 151 135.625 151 132.96V37.9885L146.177 33.1188Z" fill="#D6D6D6"/>
<path d="M151 37.9642L113.214 0H120.207L151 30.9383V37.9642Z" fill="#D6D6D6"/>
<path fill-rule="evenodd" clip-rule="evenodd" d="M76.8743 97.5151H125.102C126.428 97.5151 127.513 98.6054 127.513 99.9379C127.513 101.27 126.428 102.361 125.102 102.361H76.8743C75.548 102.361 74.4629 101.27 74.4629 99.9379C74.4629 98.6054 75.548 97.5151 76.8743 97.5151Z" fill="#D6D6D6"/>
<path fill-rule="evenodd" clip-rule="evenodd" d="M76.8743 59.6719H125.102C126.428 59.6719 127.513 60.7621 127.513 62.0946C127.513 63.4271 126.428 64.5173 125.102 64.5173H76.8743C75.548 64.5173 74.4629 63.4271 74.4629 62.0946C74.4629 60.7621 75.548 59.6719 76.8743 59.6719Z" fill="#D6D6D6"/>
<path d="M132.408 135.164V148.223H45.5988V19.8176H57.5592V14.9722H45.2371C42.5846 14.9722 40.752 17.9764 40.752 20.6414V147.932C40.752 150.597 42.5605 153.068 45.2371 153.068H132.673C135.326 153.068 137.207 150.597 137.207 147.932V135.164H132.408Z" fill="#D6D6D6"/>
<path d="M81.2877 179.413L76.7377 181.896L3.09424 162.154V36.6274L7.42621 32.2817L81.2877 51.6047V179.413Z" fill="#F1F1F1"/>
<path d="M98.6492 150.33V154.909C98.6492 158.059 97.9981 163.365 93.73 163.365H84.2533V55.8194C84.2533 50.6832 80.1539 46.4919 75.066 46.3223L29.1052 34.7659H43.1876V29.9204H9.45257C4.24401 29.9446 0 34.2087 0 39.4418V159.101C0 164.237 4.09933 168.428 9.18732 168.598L74.1496 184.927L74.7525 185C79.9852 185 84.2533 180.736 84.2533 175.503V168.21H93.73C96.0208 168.21 103.472 167.241 103.472 154.909V150.33H98.6492ZM79.4305 175.503C79.4305 177.974 77.4773 180.009 75.0177 180.154L10.1036 163.825L9.52491 163.752C6.92063 163.752 4.82274 161.669 4.82274 159.101V39.4418C4.82274 39.1268 4.84685 38.8118 4.9192 38.5211C4.96742 38.3273 5.01565 38.1577 5.08799 37.9639C5.1121 37.867 5.13622 37.7701 5.18445 37.6732C5.2809 37.4309 5.42558 37.1886 5.57027 36.9463C5.57027 36.9221 5.59438 36.9221 5.59438 36.8979C6.19722 35.953 7.16177 35.2747 8.24689 34.9597C8.29511 34.9355 8.34334 34.9355 8.39157 34.9112C8.58448 34.8628 8.77739 34.8386 8.9703 34.8143C9.06675 34.8143 9.18732 34.7901 9.28378 34.7901L74.1496 51.0951L74.7525 51.1678C77.3326 51.1678 79.4305 53.2513 79.4305 55.8194V175.503Z" fill="#D6D6D6"/>
</g>
<defs>
<clipPath id="clip0_1032_38">
<rect width="151" height="185" fill="white"/>
</clipPath>
</defs>
</svg>
