<svg width="146" height="206" viewBox="0 0 146 206" fill="none" xmlns="http://www.w3.org/2000/svg">
<path d="M23 198.5V0L52 7V206L23 198.5Z" fill="#F3F3F3"/>
<path fill-rule="evenodd" clip-rule="evenodd" d="M55.5078 24C55.5078 21.5147 57.5225 19.5 60.0078 19.5H116.127C117.32 19.5 118.465 19.9741 119.309 20.818L132.819 34.3283L132.825 34.3344L144.125 45.2448C145.004 46.0928 145.5 47.2613 145.5 48.4821V143.008C145.5 145.493 143.485 147.508 141 147.508H79V146.508H141C142.933 146.508 144.5 144.941 144.5 143.008V48.4821C144.5 47.5326 144.114 46.6238 143.431 45.9642L132.118 35.0416L118.602 21.5251C117.945 20.8687 117.055 20.5 116.127 20.5H60.0078C58.0748 20.5 56.5078 22.067 56.5078 24V64H55.5078V24Z" fill="#404040"/>
<path fill-rule="evenodd" clip-rule="evenodd" d="M46.0039 33.5039C46.0039 31.0186 48.0186 29.0039 50.5039 29.0039H56.4399V30.0039H50.5039C48.5709 30.0039 47.0039 31.5709 47.0039 33.5039V61H46.0039V33.5039ZM134.996 160.512V146.576H135.996V160.512C135.996 162.997 133.981 165.012 131.496 165.012H78.5V164.012H131.496C133.429 164.012 134.996 162.445 134.996 160.512Z" fill="#404040"/>
<path fill-rule="evenodd" clip-rule="evenodd" d="M36.5 43.0081C36.5 40.5228 38.5147 38.5081 41 38.5081H46.504V39.5081H41C39.067 39.5081 37.5 41.0751 37.5 43.0081V59H36.5V43.0081ZM125.492 170.016V164.512H126.492V170.016C126.492 172.501 124.477 174.516 121.992 174.516H78.5V173.516H121.992C123.925 173.516 125.492 171.949 125.492 170.016Z" fill="#404040"/>
<path fill-rule="evenodd" clip-rule="evenodd" d="M144.568 48.148H120.92C118.435 48.148 116.42 46.1333 116.42 43.648V20.864H117.42V43.648C117.42 45.581 118.987 47.148 120.92 47.148H144.568V48.148Z" fill="#404040"/>
<path fill-rule="evenodd" clip-rule="evenodd" d="M123 75H79V74H123V75Z" fill="black"/>
<path fill-rule="evenodd" clip-rule="evenodd" d="M123 87H79V86H123V87Z" fill="black"/>
<path fill-rule="evenodd" clip-rule="evenodd" d="M123 99H79V98H123V99Z" fill="black"/>
<path fill-rule="evenodd" clip-rule="evenodd" d="M123 111H79V110H123V111Z" fill="black"/>
<path fill-rule="evenodd" clip-rule="evenodd" d="M37 52L8 52V51L37 51V52Z" fill="#404040"/>
<path fill-rule="evenodd" clip-rule="evenodd" d="M74.2271 68.8232L7.22711 51.8612C4.06778 51.0614 1 53.4493 1 56.7083V174.33C1 176.618 2.55409 178.615 4.77288 179.177L71.7729 196.139C74.9322 196.939 78 194.551 78 191.292V73.6703C78 71.3815 76.4459 69.3849 74.2271 68.8232ZM7.47253 50.8918C3.68134 49.932 0 52.7975 0 56.7083V174.33C0 177.076 1.86491 179.472 4.52746 180.146L71.5275 197.108C75.3187 198.068 79 195.203 79 191.292V73.6703C79 70.9238 77.1351 68.5279 74.4725 67.8538L7.47253 50.8918Z" fill="#404040"/>
</svg>
