<svg width="126" height="170" viewBox="0 0 126 170" fill="none" xmlns="http://www.w3.org/2000/svg">
<path d="M35 39H76V123H35V39Z" fill="#F3F3F3"/>
<path fill-rule="evenodd" clip-rule="evenodd" d="M110.799 17.7133L94.9645 1.87868C94.4019 1.31607 93.6388 1 92.8431 1H27C25.3431 1 24 2.34315 24 4V143C24 144.657 25.3431 146 27 146H122C123.657 146 125 144.657 125 143V32.6981C125 31.8842 124.669 31.1052 124.084 30.5399L110.799 17.7133ZM111.5 17L95.6716 1.17157C94.9214 0.421427 93.904 0 92.8431 0H27C24.7909 0 23 1.79086 23 4V143C23 145.209 24.7909 147 27 147H122C124.209 147 126 145.209 126 143V32.6981C126 31.6129 125.559 30.5743 124.778 29.8205L111.5 17Z" fill="#404040"/>
<path fill-rule="evenodd" clip-rule="evenodd" d="M16 11.5C14.067 11.5 12.5 13.067 12.5 15V154C12.5 155.933 14.067 157.5 16 157.5H111C112.933 157.5 114.5 155.933 114.5 154V146.5H115.5V154C115.5 156.485 113.485 158.5 111 158.5H16C13.5147 158.5 11.5 156.485 11.5 154V15C11.5 12.5147 13.5147 10.5 16 10.5H23.5V11.5H16Z" fill="#404040"/>
<path fill-rule="evenodd" clip-rule="evenodd" d="M5 22.5C3.067 22.5 1.5 24.067 1.5 26V165C1.5 166.933 3.067 168.5 5 168.5H100C101.933 168.5 103.5 166.933 103.5 165V158H104.5V165C104.5 167.485 102.485 169.5 100 169.5H5C2.51472 169.5 0.5 167.485 0.5 165V26C0.5 23.5147 2.51472 21.5 5 21.5H12V22.5H5Z" fill="#404040"/>
<path fill-rule="evenodd" clip-rule="evenodd" d="M125.5 32.5H97.5C95.0147 32.5 93 30.4853 93 28V1H94V28C94 29.933 95.567 31.5 97.5 31.5H125.5V32.5Z" fill="#404040"/>
<path fill-rule="evenodd" clip-rule="evenodd" d="M101 64H51V63H101V64Z" fill="black"/>
<path fill-rule="evenodd" clip-rule="evenodd" d="M101 77H51V76H101V77Z" fill="black"/>
<path fill-rule="evenodd" clip-rule="evenodd" d="M101 89H51V88H101V89Z" fill="black"/>
<path fill-rule="evenodd" clip-rule="evenodd" d="M101 103H51V102H101V103Z" fill="black"/>
</svg>
