<svg width="130" height="127" viewBox="0 0 130 127" fill="none" xmlns="http://www.w3.org/2000/svg">
<g clip-path="url(#clip0_1032_96)">
<path d="M124.334 5.6989V102.58H22.3513V5.6989H124.334ZM124.674 0H21.9263C18.8102 0 16.6572 3.53332 16.6572 6.66771V102.238C16.6572 105.373 18.7819 108.279 21.9263 108.279H124.646C127.762 108.279 129.972 105.373 129.972 102.238V6.66771C130 3.53332 127.79 0 124.674 0Z" fill="#D6D6D6"/>
<path d="M73.2863 68.7004C72.6347 68.7004 71.9832 68.4724 71.4449 68.0165L43.4279 43.8532L21.6999 65.7084C20.5951 66.8197 18.8104 66.8197 17.7056 65.7084C16.6007 64.5972 16.6007 62.802 17.7056 61.6907L41.3033 37.9548C42.3515 36.9005 44.0228 36.8435 45.156 37.8123L75.156 63.6853C76.3458 64.7111 76.4874 66.5063 75.4676 67.7031C74.901 68.3584 74.1078 68.7004 73.2863 68.7004Z" fill="#D6D6D6"/>
<path d="M52.068 94.0896C51.3314 94.0896 50.6232 93.8046 50.0566 93.2633C48.9518 92.152 48.9518 90.3568 50.0566 89.2455L88.2436 50.8349C89.3484 49.7236 91.1331 49.7236 92.238 50.8349L128.527 87.3364C129.632 88.4477 129.632 90.2428 128.527 91.3541C127.422 92.4654 125.637 92.4654 124.533 91.3541L90.2266 56.8758L54.051 93.2633C53.5127 93.8046 52.7762 94.0896 52.068 94.0896Z" fill="#D6D6D6"/>
<path d="M97.819 42.0866C89.2637 42.0866 82.3232 35.1055 82.3232 26.5002C82.3232 17.8948 89.2921 10.9137 97.819 10.9137C106.346 10.8852 113.315 17.8948 113.315 26.5002C113.315 35.1055 106.346 42.0866 97.819 42.0866ZM97.819 16.5841C92.3799 16.5841 87.989 21.0292 87.989 26.4717C87.989 31.9141 92.4082 36.3593 97.819 36.3593C103.258 36.3593 107.649 31.9141 107.649 26.4717C107.649 21.0292 103.23 16.5841 97.819 16.5841Z" fill="#D6D6D6"/>
<path d="M107.649 105.829V121.301H5.66572V24.4201H20.0283V18.7212H5.26912C2.12465 18.7212 0 22.2545 0 25.3889V120.959C0 124.094 2.12465 127 5.26912 127H107.989C111.105 127 113.314 124.094 113.314 120.959V105.829H107.649Z" fill="#D6D6D6"/>
</g>
<defs>
<clipPath id="clip0_1032_96">
<rect width="130" height="127" fill="white"/>
</clipPath>
</defs>
</svg>
