<svg width="120" height="120" viewBox="0 0 120 120" fill="none" xmlns="http://www.w3.org/2000/svg">
<path d="M106 43.5C106 54.2696 97.2696 63 86.5 63C75.7304 63 67 54.2696 67 43.5C67 32.7304 75.7304 24 86.5 24C97.2696 24 106 32.7304 106 43.5Z" fill="#F3F3F3"/>
<path fill-rule="evenodd" clip-rule="evenodd" d="M116 1H21C19.3431 1 18 2.34314 18 4V99C18 100.657 19.3431 102 21 102H116C117.657 102 119 100.657 119 99V4C119 2.34315 117.657 1 116 1ZM21 0C18.7909 0 17 1.79086 17 4V99C17 101.209 18.7909 103 21 103H116C118.209 103 120 101.209 120 99V4C120 1.79086 118.209 0 116 0H21Z" fill="#404040"/>
<path fill-rule="evenodd" clip-rule="evenodd" d="M13 8.5C11.067 8.5 9.5 10.067 9.5 12V107C9.5 108.933 11.067 110.5 13 110.5H108C109.933 110.5 111.5 108.933 111.5 107V102.5H112.5V107C112.5 109.485 110.485 111.5 108 111.5H13C10.5147 111.5 8.5 109.485 8.5 107V12C8.5 9.51472 10.5147 7.5 13 7.5H17.5V8.5H13Z" fill="#404040"/>
<path fill-rule="evenodd" clip-rule="evenodd" d="M5 16.5C3.067 16.5 1.5 18.067 1.5 20V115C1.5 116.933 3.067 118.5 5 118.5H100C101.933 118.5 103.5 116.933 103.5 115V111H104.5V115C104.5 117.485 102.485 119.5 100 119.5H5C2.51472 119.5 0.5 117.485 0.5 115V20C0.5 17.5147 2.51472 15.5 5 15.5H9V16.5H5Z" fill="#404040"/>
<path fill-rule="evenodd" clip-rule="evenodd" d="M86.0039 51.2974L119.853 85.1464L119.146 85.8535L85.9949 52.7026L46.8484 90.8581L46.1504 90.1419L86.0039 51.2974Z" fill="#404040"/>
<path fill-rule="evenodd" clip-rule="evenodd" d="M93 33C98.2467 33 102.5 28.7467 102.5 23.5C102.5 18.2533 98.2467 14 93 14C87.7533 14 83.5 18.2533 83.5 23.5C83.5 28.7467 87.7533 33 93 33ZM93 34C98.799 34 103.5 29.299 103.5 23.5C103.5 17.701 98.799 13 93 13C87.201 13 82.5 17.701 82.5 23.5C82.5 29.299 87.201 34 93 34Z" fill="#404040"/>
<path fill-rule="evenodd" clip-rule="evenodd" d="M38.4777 37.8153L67.3298 63.1241L66.6703 63.8759L38.5224 39.1847L17.8536 59.8536L17.1465 59.1465L38.4777 37.8153Z" fill="#404040"/>
</svg>
