<svg width="133" height="130" viewBox="0 0 133 130" fill="none" xmlns="http://www.w3.org/2000/svg">
<g clip-path="url(#clip0_1032_85)">
<path d="M127.203 5.83352V105.003H22.867V5.83352H127.203ZM127.551 0H22.4322C19.2442 0 17.0415 3.61678 17.0415 6.82522V104.653C17.0415 107.862 19.2152 110.837 22.4322 110.837H127.522C130.71 110.837 132.971 107.862 132.971 104.653V6.82522C133 3.61678 130.739 0 127.551 0Z" fill="#D6D6D6"/>
<path d="M74.9772 70.3232C74.3106 70.3232 73.644 70.0899 73.0934 69.6232L44.4298 44.8891L22.2004 67.2606C21.07 68.3982 19.2442 68.3982 18.1138 67.2606C16.9835 66.1231 16.9835 64.2855 18.1138 63.148L42.2561 38.8514C43.3285 37.7722 45.0384 37.7139 46.1977 38.7056L76.8901 65.1897C78.1073 66.2398 78.2522 68.0773 77.2089 69.3024C76.6292 69.9732 75.8177 70.3232 74.9772 70.3232Z" fill="#D6D6D6"/>
<path d="M53.2692 96.3122C52.5157 96.3122 51.7912 96.0205 51.2115 95.4663C50.0812 94.3288 50.0812 92.4912 51.2115 91.3537L90.2797 52.0358C91.41 50.8982 93.2359 50.8982 94.3662 52.0358L131.493 89.3995C132.623 90.537 132.623 92.3746 131.493 93.5121C130.362 94.6497 128.536 94.6497 127.406 93.5121L92.3085 58.2193L55.298 95.4663C54.7474 96.0205 53.9938 96.3122 53.2692 96.3122Z" fill="#D6D6D6"/>
<path d="M100.076 43.0808C91.3233 43.0808 84.2227 35.9348 84.2227 27.1262C84.2227 18.3175 91.3523 11.1715 100.076 11.1715C108.829 11.1423 115.929 18.3175 115.929 27.1262C115.929 35.9348 108.829 43.0808 100.076 43.0808ZM100.076 16.9758C94.5114 16.9758 90.0191 21.526 90.0191 27.097C90.0191 32.668 94.5404 37.2181 100.076 37.2181C105.641 37.2181 110.133 32.668 110.133 27.097C110.133 21.526 105.612 16.9758 100.076 16.9758Z" fill="#D6D6D6"/>
<path d="M118.596 108.649V114.95H14.2594V15.7798H19.737V9.94629H13.8536C10.6655 9.94629 8.46289 13.5631 8.46289 16.7715V114.6C8.46289 117.808 10.6366 120.783 13.8536 120.783H118.944C122.132 120.783 124.392 117.808 124.392 114.6V108.649H118.596Z" fill="#D6D6D6"/>
<path d="M110.133 117.108V124.167H5.79647V24.9971H11.1582V19.1636H5.39072C2.17368 19.1636 0 22.7804 0 25.9888V123.817C0 127.025 2.17368 130 5.39072 130H110.481C113.669 130 115.929 127.025 115.929 123.817V117.108H110.133Z" fill="#D6D6D6"/>
</g>
<defs>
<clipPath id="clip0_1032_85">
<rect width="133" height="130" fill="white"/>
</clipPath>
</defs>
</svg>
