<svg width="112" height="112" viewBox="0 0 112 112" fill="none" xmlns="http://www.w3.org/2000/svg">
<path d="M103 42C103 54.1503 93.1503 64 81 64C68.8497 64 59 54.1503 59 42C59 29.8497 68.8497 20 81 20C93.1503 20 103 29.8497 103 42Z" fill="#F3F3F3"/>
<path fill-rule="evenodd" clip-rule="evenodd" d="M108 1H13C11.3431 1 10 2.34314 10 4V99C10 100.657 11.3431 102 13 102H108C109.657 102 111 100.657 111 99V4C111 2.34315 109.657 1 108 1ZM13 0C10.7909 0 9 1.79086 9 4V99C9 101.209 10.7909 103 13 103H108C110.209 103 112 101.209 112 99V4C112 1.79086 110.209 0 108 0H13Z" fill="#404040"/>
<path fill-rule="evenodd" clip-rule="evenodd" d="M5 8.5C3.067 8.5 1.5 10.067 1.5 12V107C1.5 108.933 3.067 110.5 5 110.5H100C101.933 110.5 103.5 108.933 103.5 107V102.5H104.5V107C104.5 109.485 102.485 111.5 100 111.5H5C2.51472 111.5 0.5 109.485 0.5 107V12C0.5 9.51472 2.51472 7.5 5 7.5H9.5V8.5H5Z" fill="#404040"/>
<path fill-rule="evenodd" clip-rule="evenodd" d="M78.0039 51.2974L111.853 85.1464L111.146 85.8535L77.9949 52.7026L38.8484 90.8581L38.1504 90.1419L78.0039 51.2974Z" fill="#404040"/>
<path fill-rule="evenodd" clip-rule="evenodd" d="M85 33C90.2467 33 94.5 28.7467 94.5 23.5C94.5 18.2533 90.2467 14 85 14C79.7533 14 75.5 18.2533 75.5 23.5C75.5 28.7467 79.7533 33 85 33ZM85 34C90.799 34 95.5 29.299 95.5 23.5C95.5 17.701 90.799 13 85 13C79.201 13 74.5 17.701 74.5 23.5C74.5 29.299 79.201 34 85 34Z" fill="#404040"/>
<path fill-rule="evenodd" clip-rule="evenodd" d="M30.4777 37.8153L59.3298 63.1241L58.6703 63.8759L30.5224 39.1847L9.85359 59.8536L9.14648 59.1465L30.4777 37.8153Z" fill="#404040"/>
</svg>
