<svg width="68" height="50" viewBox="0 0 68 50" fill="none" xmlns="http://www.w3.org/2000/svg">
<path fill-rule="evenodd" clip-rule="evenodd" d="M34.0001 0.0888672L45.2157 17.1794L44.7395 17.4391C42.1538 18.8495 41.0051 21.3 41.0624 23.3613C41.091 24.3923 41.4195 25.3038 41.9916 25.95C42.556 26.5873 43.3858 27.0002 44.5001 27.0002C45.8504 27.0002 46.7061 26.5983 47.2503 26.0236C47.8052 25.4376 48.0979 24.6071 48.1862 23.6421C48.3641 21.6971 47.6903 19.4194 47.0589 18.2355L46.8904 17.9195L55.3564 8.8891L56.5331 17.7141L56.3124 17.8906C55.1018 18.8591 54.0765 20.145 53.8002 21.361C53.6656 21.9533 53.7105 22.5158 53.982 23.0336C54.2508 23.5462 54.7679 24.0646 55.6685 24.525C56.6205 24.7252 57.2527 24.5813 57.682 24.2938C58.1299 23.9938 58.4445 23.4796 58.6355 22.7888C59.0219 21.392 58.8392 19.4993 58.5134 18.1147L58.4468 17.8317L67.0139 9.8765L54.8712 50.0002H13.129L0.986328 9.8765L9.55341 17.8317L9.48681 18.1147C9.16102 19.4993 8.97831 21.392 9.36465 22.7888C9.55572 23.4796 9.87027 23.9938 10.3182 24.2938C10.7475 24.5813 11.3797 24.7252 12.3317 24.525C13.2323 24.0646 13.7494 23.5462 14.0182 23.0336C14.2897 22.5158 14.3346 21.9533 14.2 21.361C13.9237 20.145 12.8984 18.8591 11.6878 17.8906L11.4671 17.7141L12.6438 8.8891L21.1098 17.9195L20.9413 18.2355C20.3099 19.4194 19.6361 21.6971 19.814 23.6421C19.9022 24.6071 20.195 25.4376 20.7499 26.0236C21.2941 26.5983 22.1498 27.0002 23.5001 27.0002C24.6144 27.0002 25.4442 26.5873 26.0086 25.95C26.5807 25.3038 26.9092 24.3923 26.9378 23.3613C26.9951 21.3 25.8464 18.8495 23.2607 17.4391L22.7845 17.1794L34.0001 0.0888672ZM24.2068 16.8346C26.7984 18.4581 28.0014 21.0847 27.9374 23.3891C27.9035 24.6081 27.5133 25.7591 26.7573 26.6129C25.9935 27.4755 24.8858 28.0002 23.5001 28.0002C21.9383 28.0002 20.7963 27.527 20.0238 26.7112C19.2618 25.9065 18.9185 24.8308 18.8181 23.7332C18.6341 21.7207 19.2491 19.459 19.897 18.0879L13.3564 11.1113L12.5325 17.2906C13.7388 18.3086 14.8464 19.693 15.1752 21.1394C15.3531 21.9221 15.3042 22.7345 14.9038 23.498C14.5062 24.2563 13.789 24.9148 12.7237 25.4474L12.6687 25.4749L12.6086 25.4883C11.4376 25.7485 10.4882 25.6111 9.76176 25.1247C9.04488 24.6446 8.62899 23.8802 8.40084 23.0554C7.97768 21.5255 8.14665 19.5995 8.44955 18.1713L3.01387 13.1239L13.8712 49.0002H54.129L64.9863 13.1239L59.5507 18.1713C59.8535 19.5995 60.0225 21.5255 59.5994 23.0554C59.3712 23.8802 58.9553 24.6446 58.2384 25.1247C57.512 25.6111 56.5626 25.7485 55.3916 25.4883L55.3315 25.4749L55.2765 25.4474C54.2112 24.9148 53.494 24.2563 53.0964 23.498C52.696 22.7345 52.6471 21.9221 52.825 21.1394C53.1538 19.693 54.2614 18.3086 55.4677 17.2906L54.6438 11.1113L48.1032 18.0879C48.7511 19.459 49.3661 21.7207 49.1821 23.7332C49.0817 24.8308 48.7384 25.9065 47.9764 26.7112C47.2039 27.527 46.0619 28.0002 44.5001 28.0002C43.1144 28.0002 42.0067 27.4755 41.2429 26.6129C40.4869 25.7591 40.0967 24.6081 40.0628 23.3891C39.9988 21.0847 41.2018 18.4581 43.7934 16.8346L34.0001 1.9115L24.2068 16.8346Z" fill="#404040"/>
<path fill-rule="evenodd" clip-rule="evenodd" d="M56 44L12 44V43L56 43V44Z" fill="#404040"/>
</svg>
