<svg width="77" height="82" viewBox="0 0 77 82" fill="none" xmlns="http://www.w3.org/2000/svg">
<path fill-rule="evenodd" clip-rule="evenodd" d="M7.53809 37.9507H8.53809V80.9999H68.6829V37.9507H69.6829V81.9999H7.53809V37.9507Z" fill="#404040"/>
<path fill-rule="evenodd" clip-rule="evenodd" d="M38.3906 0.288574L76.1369 38.479L75.4257 39.1819L38.3906 1.71113L1.35552 39.1819L0.644287 38.479L38.3906 0.288574Z" fill="#404040"/>
<path fill-rule="evenodd" clip-rule="evenodd" d="M51.0272 46.8687H26.6338V65.9834H51.0272V46.8687ZM26.6338 45.8687C26.0815 45.8687 25.6338 46.3164 25.6338 46.8687V65.9834C25.6338 66.5357 26.0815 66.9834 26.6338 66.9834H51.0272C51.5795 66.9834 52.0272 66.5357 52.0272 65.9834V46.8687C52.0272 46.3164 51.5795 45.8687 51.0272 45.8687H26.6338Z" fill="#404040"/>
<path fill-rule="evenodd" clip-rule="evenodd" d="M38.5237 66.1037L38.5237 46.7485L39.5237 46.7485L39.5237 66.1037L38.5237 66.1037Z" fill="#404040"/>
</svg>
