<svg width="41" height="46" viewBox="0 0 41 46" fill="none" xmlns="http://www.w3.org/2000/svg">
<path fill-rule="evenodd" clip-rule="evenodd" d="M19.5059 0L20.8779 5.33556L22.2499 0H19.5059ZM25.0592 6.79467L28.3695 2.22133L25.7997 1.35022L25.0592 6.79467ZM13.4517 2.19956L16.7619 6.79467L16.0215 1.35022L13.4517 2.22133V2.19956ZM35.077 39.396C33.5823 41.0123 31.5582 42.0398 29.3712 42.2925L30.2641 41.4867C35.469 36.26 36.4926 30.7067 33.313 24.8702L31.3312 21.3858L29.589 17.7489C29.0446 16.5293 29.1752 15.6147 30.0463 14.9396C30.2154 14.8117 30.4092 14.7205 30.6154 14.6718C30.8216 14.623 31.0358 14.6178 31.2441 14.6564C31.8539 14.7653 32.4201 15.1573 32.8121 15.7453L37.9735 24.8049C40.0859 28.3329 40.4561 34.0169 35.077 39.396ZM11.1215 38.4378L2.08368 29.4C1.78933 29.054 1.63604 28.6099 1.65431 28.156C1.67258 27.7022 1.86107 27.2718 2.18227 26.9506C2.50347 26.6294 2.93383 26.4409 3.38771 26.4226C3.84159 26.4044 4.2857 26.5577 4.63168 26.852L9.33568 31.556C9.49189 31.6624 9.68053 31.7105 9.86862 31.692C10.0567 31.6734 10.2323 31.5892 10.3646 31.4543C10.497 31.3194 10.5777 31.1422 10.5926 30.9538C10.6076 30.7653 10.5558 30.5777 10.4463 30.4236L5.76412 25.7196L2.58457 22.5836C2.29022 22.2376 2.13693 21.7935 2.1552 21.3396C2.17347 20.8857 2.36196 20.4554 2.68316 20.1342C3.00436 19.813 3.43472 19.6245 3.8886 19.6062C4.34248 19.5879 4.78659 19.7412 5.13257 20.0356L12.6023 27.5271C12.6755 27.6035 12.7634 27.6643 12.8607 27.7059C12.958 27.7474 13.0628 27.7689 13.1686 27.7689C13.2744 27.7689 13.3791 27.7474 13.4764 27.7059C13.5737 27.6643 13.6616 27.6035 13.7348 27.5271C13.8112 27.4539 13.872 27.366 13.9136 27.2687C13.9551 27.1714 13.9765 27.0667 13.9765 26.9609C13.9765 26.8551 13.9551 26.7504 13.9136 26.6531C13.872 26.5558 13.8112 26.4679 13.7348 26.3947L6.26501 18.9031L4.15257 16.7907C3.82268 16.453 3.638 15.9996 3.638 15.5276C3.638 15.0555 3.82268 14.6021 4.15257 14.2644C4.49393 13.9332 4.9509 13.7479 5.42657 13.7479C5.90224 13.7479 6.35921 13.9332 6.70057 14.2644L8.81301 16.3769L16.3046 23.8467C16.3774 23.9198 16.464 23.9778 16.5593 24.0173C16.6545 24.0569 16.7567 24.0773 16.8599 24.0773C16.9631 24.0773 17.0653 24.0569 17.1606 24.0173C17.2559 23.9778 17.3424 23.9198 17.4152 23.8467C17.5642 23.6959 17.6477 23.4924 17.6477 23.2805C17.6477 23.0685 17.5642 22.865 17.4152 22.7142L9.94546 15.2444C9.6921 14.9941 9.5194 14.6737 9.44955 14.3244C9.37969 13.9752 9.41588 13.613 9.55346 13.2844C9.68768 12.9558 9.91683 12.6745 10.2116 12.4767C10.5064 12.2789 10.8535 12.1734 11.2086 12.1738C11.6877 12.1738 12.145 12.3698 12.4717 12.6964L25.1028 25.3058C25.2404 25.4192 25.4118 25.4837 25.59 25.4893C25.7683 25.4949 25.9434 25.4412 26.0878 25.3366C26.2323 25.232 26.3379 25.0824 26.3882 24.9113C26.4386 24.7402 26.4307 24.5573 26.3659 24.3911L23.9268 19.2516C23.3606 18.032 23.4912 17.1173 24.3624 16.4422C24.5314 16.3144 24.7252 16.2232 24.9314 16.1744C25.1376 16.1257 25.3518 16.1205 25.5601 16.1591C26.1699 16.268 26.7579 16.66 27.1499 17.248L31.941 25.6542C34.7721 30.8373 33.8357 35.6502 29.1317 40.3542C27.9762 41.5676 26.5378 42.4753 24.9453 42.996C23.3527 43.5167 21.6559 43.6342 20.0068 43.3378C16.6193 42.653 13.5247 40.9422 11.1432 38.4378H11.1215ZM18.1557 11.2156L22.7726 15.8107C21.8797 16.8996 21.749 18.3587 22.4895 19.9484L22.9686 20.9502L15.3028 13.2627C15.1701 13.0219 15.0955 12.7534 15.085 12.4787C15.085 11.9778 15.281 11.5422 15.6077 11.1938C15.9516 10.8675 16.4076 10.6856 16.8817 10.6856C17.3558 10.6856 17.8118 10.8675 18.1557 11.1938V11.2156ZM34.1841 14.9178C33.8878 14.4448 33.4969 14.0381 33.0359 13.7233C32.5749 13.4085 32.0539 13.1923 31.5055 13.0884C31.0803 13.0133 30.6442 13.0267 30.2245 13.1279C29.8048 13.2291 29.4105 13.4158 29.0664 13.6764C28.413 14.1991 27.9775 14.8742 27.8032 15.6147C27.2588 15.0702 26.5619 14.7436 25.8215 14.5911C25.2117 14.504 24.6019 14.5911 24.0357 14.8089L19.2881 10.0613C18.6516 9.42831 17.7903 9.07298 16.8926 9.07298C15.9948 9.07298 15.1336 9.42831 14.497 10.0613C14.0615 10.4969 13.7783 11.0196 13.6259 11.5858C13.1978 11.153 12.6613 10.8432 12.0725 10.6887C11.4837 10.5343 10.8643 10.5409 10.2789 10.7078C9.69348 10.8748 9.1637 11.1959 8.74493 11.6377C8.32615 12.0795 8.03377 12.6256 7.89835 13.2191C7.2594 12.5754 6.39464 12.2062 5.4878 12.1899C4.58097 12.1736 3.70352 12.5116 3.0419 13.132C2.40888 13.7686 2.05355 14.6298 2.05355 15.5276C2.05355 16.4253 2.40888 17.2865 3.0419 17.9231C2.51924 18.1409 1.95301 18.4458 1.4739 18.9031C0.84088 19.5397 0.485549 20.4009 0.485549 21.2987C0.485549 22.1964 0.84088 23.0577 1.4739 23.6942L2.60635 24.8267C2.02145 24.9667 1.48421 25.2595 1.04951 25.6751C0.61481 26.0908 0.298238 26.6143 0.132136 27.1924C-0.0339658 27.7704 -0.0436434 28.3822 0.104092 28.9652C0.251827 29.5482 0.551679 30.0815 0.973013 30.5107L9.98901 39.5702C12.614 42.3112 16.0214 44.1746 19.7455 44.9058C22.2376 45.3757 24.8154 44.9921 27.0628 43.8169C28.739 44.0339 30.4427 43.8489 32.0332 43.2771C33.6237 42.7053 35.0552 41.7631 36.2095 40.5285C42.1984 34.496 41.741 28.028 39.3237 23.9991L34.1623 14.9178H34.1841Z" fill="#545454"/>
</svg>
