<svg width="52" height="52" viewBox="0 0 52 52" fill="none" xmlns="http://www.w3.org/2000/svg">
<g clip-path="url(#clip0)">
<path d="M3.24986 3.53831C-0.836471 7.78281 -0.000137925 12.2916 -0.000137925 25.9893C-0.000137925 37.3643 -1.9848 48.7675 8.4022 51.452C11.6457 52.2861 40.3844 52.2861 43.6235 51.4476C47.9482 50.3318 51.4669 46.824 51.9479 40.7075C52.015 39.8538 52.015 12.14 51.9457 11.269C51.4344 4.75381 47.4239 0.998975 42.1394 0.238475C40.9282 0.0629746 40.6855 0.0109745 34.4715 0.000141218C12.43 0.0109745 7.59836 -0.970526 3.24986 3.53831Z" fill="url(#paint0_linear)"/>
<path d="M25.9956 6.80076C18.1284 6.80076 10.6578 6.10092 7.80426 13.4243C6.62559 16.4489 6.79676 20.3771 6.79676 26.0018C6.79676 30.9374 6.63859 35.5763 7.80426 38.5771C10.6513 45.9048 18.1826 45.2028 25.9913 45.2028C33.5248 45.2028 41.2923 45.9871 44.1804 38.5771C45.3613 35.5221 45.1879 31.6524 45.1879 26.0018C45.1879 18.5008 45.6017 13.6583 41.9639 10.0226C38.2806 6.33926 33.2994 6.80076 25.9869 6.80076H25.9956ZM24.2753 10.2609C40.6856 10.2349 42.7743 8.41059 41.6216 33.7541C41.2121 42.7176 34.3871 41.7339 25.9978 41.7339C10.7011 41.7339 10.2613 41.2963 10.2613 25.9931C10.2613 10.5123 11.4746 10.2696 24.2753 10.2566V10.2609ZM36.2439 13.4481C34.9721 13.4481 33.9408 14.4794 33.9408 15.7513C33.9408 17.0231 34.9721 18.0544 36.2439 18.0544C37.5158 18.0544 38.5471 17.0231 38.5471 15.7513C38.5471 14.4794 37.5158 13.4481 36.2439 13.4481ZM25.9956 16.1413C20.5508 16.1413 16.1373 20.5569 16.1373 26.0018C16.1373 31.4466 20.5508 35.8601 25.9956 35.8601C31.4404 35.8601 35.8518 31.4466 35.8518 26.0018C35.8518 20.5569 31.4404 16.1413 25.9956 16.1413ZM25.9956 19.6014C34.4564 19.6014 34.4673 32.4021 25.9956 32.4021C17.5369 32.4021 17.5239 19.6014 25.9956 19.6014Z" fill="white"/>
</g>
<defs>
<linearGradient id="paint0_linear" x1="3.34957" y1="48.6788" x2="51.6781" y2="6.85109" gradientUnits="userSpaceOnUse">
<stop stop-color="#FFDD55"/>
<stop offset="0.5" stop-color="#FF543E"/>
<stop offset="1" stop-color="#C837AB"/>
</linearGradient>
<clipPath id="clip0">
<rect width="52" height="52" fill="white"/>
</clipPath>
</defs>
</svg>
