<svg width="57" height="57" viewBox="0 0 57 57" fill="none" xmlns="http://www.w3.org/2000/svg">
<path d="M49.875 0H7.125C3.19438 0 0 3.19438 0 7.125V49.875C0 53.8032 3.19438 57 7.125 57H49.875C53.8032 57 57 53.8032 57 49.875V7.125C57 3.19438 53.8032 0 49.875 0Z" fill="#3B5999"/>
<path d="M39.1875 28.5V21.375C39.1875 19.4085 40.7835 19.5938 42.75 19.5938H46.3125V10.6875H39.1875C33.2832 10.6875 28.5 15.4707 28.5 21.375V28.5H21.375V37.4062H28.5V57H39.1875V37.4062H44.5312L48.0938 28.5H39.1875Z" fill="white"/>
</svg>
