<svg width="65" height="46" viewBox="0 0 65 46" fill="none" xmlns="http://www.w3.org/2000/svg">
<path d="M62.2375 5.29355C60.4744 2.1573 58.5609 1.58043 54.665 1.36105C50.7731 1.09699 40.9866 0.987305 32.5081 0.987305C24.0134 0.987305 14.2228 1.09699 10.335 1.35699C6.44719 1.58043 4.52969 2.15324 2.75031 5.29355C0.934375 8.42574 0 13.8207 0 23.3189C0 23.327 0 23.3311 0 23.3311C0 23.3392 0 23.3432 0 23.3432V23.3514C0 32.8089 0.934375 38.2445 2.75031 41.3442C4.52969 44.4804 6.44312 45.0492 10.3309 45.3132C14.2228 45.5407 24.0134 45.6748 32.5081 45.6748C40.9866 45.6748 50.7731 45.5407 54.6691 45.3173C58.565 45.0532 60.4784 44.4845 62.2416 41.3482C64.0738 38.2486 65 32.8129 65 23.3554C65 23.3554 65 23.3432 65 23.3351C65 23.3351 65 23.327 65 23.3229C65 13.8207 64.0737 8.42574 62.2375 5.29355Z" fill="#F44336"/>
<path d="M24.375 35.5186V11.1436L44.6875 23.3311L24.375 35.5186Z" fill="#FAFAFA"/>
</svg>
