<svg width="133" height="40" viewBox="0 0 133 40" fill="none" xmlns="http://www.w3.org/2000/svg">
<path d="M126.67 5.2865H131.399V2.03821H118.259V5.2865H122.988V20.4575H126.677V5.2865H126.67ZM111.803 5.38986C112.46 5.63348 113.117 5.9214 113.766 6.24622L114.961 3.07176C113.257 2.20801 111.56 1.77244 109.863 1.77244C108.203 1.77244 106.757 2.15632 105.525 2.9241C104.293 3.69188 103.348 4.79926 102.684 6.23885C102.028 7.67843 101.696 9.36164 101.696 11.2737C101.696 14.3153 102.367 16.6482 103.71 18.2723C105.053 19.8965 106.986 20.7085 109.516 20.7085C111.28 20.7085 112.873 20.3911 114.305 19.7636V16.4857C112.571 17.1354 111.088 17.4528 109.863 17.4528C106.949 17.4528 105.495 15.4005 105.495 11.2959C105.495 9.32473 105.879 7.78179 106.639 6.68179C107.399 5.57442 108.476 5.02812 109.863 5.02812C110.498 5.02074 111.147 5.14624 111.803 5.38986ZM96.8928 17.2314H90.5626V12.4771H96.4575V9.28043H90.5626V5.23483H96.8928V2.03821H86.8663V20.4575H96.8928V17.2314ZM79.1491 19.6824C80.0787 18.8038 80.5435 17.5267 80.5435 15.8508V2.40733H76.8546V15.873C76.8546 16.7589 76.6775 17.4086 76.3307 17.822C75.984 18.2354 75.4011 18.4495 74.5969 18.4495C74.0731 18.4495 73.4976 18.383 72.8631 18.2502V20.7897C73.4829 20.9374 74.2059 21.0038 75.0396 21.0038C76.8472 20.9964 78.2195 20.5609 79.1491 19.6824ZM58.7346 6.56367C59.4797 5.52274 60.5864 4.99859 62.0546 4.99859C64.9836 4.99859 66.4444 7.07307 66.4444 11.222C66.4444 15.3636 64.9688 17.4307 62.0251 17.4307C60.5569 17.4307 59.4576 16.9139 58.7198 15.8656C57.982 14.8247 57.6131 13.2744 57.6131 11.2146C57.6131 9.16231 57.9894 7.61199 58.7346 6.56367ZM68.193 4.19389C66.7764 2.56236 64.7328 1.75029 62.0546 1.75029C59.3838 1.75029 57.3254 2.56236 55.8941 4.17913C54.4628 5.7959 53.7471 8.13615 53.7471 11.1999C53.7471 14.2636 54.4628 16.6186 55.8867 18.2575C57.318 19.8965 59.3617 20.7159 62.0251 20.7159C64.6885 20.7159 66.7395 19.8965 68.1708 18.2575C69.6021 16.6186 70.3104 14.2784 70.3104 11.2294C70.3178 8.16567 69.6095 5.82542 68.193 4.19389ZM42.1344 13.3925L46.2881 20.4575H50.3828C49.586 19.2468 47.8818 16.5743 45.2626 12.4328C46.2955 11.9529 47.0923 11.2959 47.653 10.4469C48.2138 9.60526 48.5015 8.63816 48.5015 7.56031C48.5015 5.69992 47.9334 4.3194 46.7972 3.40397C45.661 2.49592 43.9125 2.03821 41.5516 2.03821H36.483V20.4575H40.1719V13.3925H42.1344V13.3925ZM40.1645 5.23483H41.286C42.4738 5.23483 43.3518 5.41939 43.9199 5.78851C44.4879 6.15764 44.7683 6.77777 44.7683 7.65628C44.7683 8.5348 44.4879 9.18446 43.9346 9.59788C43.3813 10.0113 42.5181 10.218 41.3524 10.218H40.1571V5.23483H40.1645ZM29.5921 3.47779C28.4928 2.51807 26.8918 2.03821 24.7743 2.03821H19.2188V20.4575H22.9077V13.9019H24.494C26.6483 13.9019 28.3157 13.3777 29.4888 12.3294C30.6619 11.2811 31.2447 9.76029 31.2447 7.78178C31.2373 5.8771 30.6914 4.4449 29.5921 3.47779ZM22.9077 5.23483H24.5825C25.5933 5.23483 26.3311 5.4563 26.8032 5.89187C27.2754 6.32744 27.5115 7.00662 27.5115 7.92205C27.5115 8.8301 27.2312 9.51667 26.6631 9.99653C26.1024 10.469 25.2465 10.7126 24.1177 10.7126H22.9004V5.23483H22.9077ZM15.0872 11.9677H8.69801V15.12H15.0872V11.9677ZM4.55904 2.03821H0.870117V20.4575H4.55904V2.03821Z" fill="white"/>
<path d="M9.16497 30.4019V34.1901L9.12816 35.1793L9.11436 35.4892L12.3766 30.4019H13.5131V36.3736H12.6618V32.7222L12.6803 32.002L12.7079 31.2954L9.45484 36.3736H8.31836V30.4019H9.16497V30.4019Z" fill="#F45B45"/>
<path d="M17.7236 32.8819C18.8647 32.8819 19.4352 32.5719 19.4352 31.9428C19.4352 31.3548 18.9751 31.0585 18.0503 31.0585C17.7696 31.0585 17.512 31.0813 17.2819 31.136C17.0518 31.1861 16.7482 31.2864 16.3755 31.4414L16.0488 30.7075C16.6699 30.4294 17.3509 30.2926 18.0871 30.2926C18.7819 30.2926 19.3248 30.4339 19.7251 30.7166C20.1254 30.9992 20.3233 31.3821 20.3233 31.8699C20.3233 32.54 19.946 32.9776 19.196 33.1827V33.2283C19.6561 33.3651 19.9966 33.5565 20.2082 33.8027C20.4199 34.0534 20.5257 34.3634 20.5257 34.7372C20.5257 35.2887 20.3003 35.7172 19.8539 36.0272C19.403 36.3326 18.7865 36.4876 17.9951 36.4876C17.1255 36.4876 16.4537 36.36 15.9844 36.1001V35.2705C16.6561 35.585 17.3325 35.74 18.0181 35.74C18.5472 35.74 18.9429 35.6489 19.2144 35.4711C19.4859 35.2933 19.6193 35.0335 19.6193 34.6961C19.6193 34.0032 19.0487 33.6568 17.9077 33.6568H17.0702V32.8864H17.7236V32.8819Z" fill="#F45B45"/>
<path d="M26.8433 36.3735L26.6639 35.521H26.6179C26.3188 35.8948 26.0197 36.1501 25.7206 36.2823C25.4216 36.4145 25.0489 36.4829 24.6026 36.4829C24.0044 36.4829 23.5351 36.3324 23.1992 36.027C22.8587 35.7216 22.6885 35.2886 22.6885 34.7233C22.6885 33.5153 23.6639 32.8862 25.6102 32.827L26.6317 32.7951V32.4258C26.6317 31.9563 26.5304 31.6099 26.328 31.3865C26.1255 31.1631 25.7989 31.0537 25.3525 31.0537C24.851 31.0537 24.2805 31.2041 23.6455 31.5096L23.3648 30.8167C23.6639 30.6571 23.986 30.5295 24.3403 30.4429C24.6946 30.3517 25.0489 30.3061 25.4032 30.3061C26.1209 30.3061 26.6547 30.4657 26.9998 30.7802C27.3448 31.0947 27.5197 31.6007 27.5197 32.2982V36.3735H26.8433ZM24.782 35.7353C25.3525 35.7353 25.7989 35.5803 26.1209 35.2703C26.4476 34.9603 26.6087 34.5273 26.6087 33.9712V33.4332L25.6976 33.4697C24.9706 33.4971 24.4507 33.6065 24.1286 33.8025C23.8066 33.9985 23.6455 34.3085 23.6455 34.7279C23.6455 35.0561 23.7467 35.3022 23.9446 35.4754C24.1424 35.6532 24.4231 35.7353 24.782 35.7353Z" fill="#F45B45"/>
<path d="M31.3844 30.402V34.1901L31.3476 35.1793L31.3338 35.4893L34.596 30.402H35.7325V36.3736H34.8767V32.7223L34.8951 32.0021L34.9227 31.2955L31.6697 36.3736H30.5332V30.402H31.3844V30.402ZM33.1098 29.6134C32.4335 29.6134 31.9366 29.4858 31.6237 29.2214C31.3108 28.9615 31.136 28.533 31.0991 27.9404H31.9596C31.9918 28.3188 32.093 28.5832 32.2586 28.7291C32.4243 28.8749 32.7142 28.9524 33.1283 28.9524C33.5055 28.9524 33.7862 28.8704 33.9657 28.7108C34.1451 28.5513 34.2601 28.2914 34.2969 27.9359H35.162C35.116 28.5103 34.9319 28.9342 34.6052 29.2031C34.2831 29.4767 33.7816 29.6134 33.1098 29.6134Z" fill="#F45B45"/>
<path d="M39.703 30.4019V32.9H43.0803V30.4019H43.9913V36.3736H43.0803V33.6841H39.703V36.3736H38.792V30.4019H39.703V30.4019Z" fill="#F45B45"/>
<path d="M58.8667 36.3735L58.6873 35.521H58.6413C58.3422 35.8948 58.0431 36.1501 57.7441 36.2823C57.445 36.4145 57.0723 36.4829 56.626 36.4829C56.0278 36.4829 55.5585 36.3324 55.2226 36.027C54.8822 35.7216 54.7119 35.2886 54.7119 34.7233C54.7119 33.5153 55.6874 32.8862 57.6336 32.827L58.6551 32.7951V32.4258C58.6551 31.9563 58.5539 31.6099 58.3514 31.3865C58.149 31.1631 57.8223 31.0537 57.376 31.0537C56.8744 31.0537 56.3039 31.2041 55.6689 31.5096L55.3883 30.8167C55.6874 30.6571 56.0094 30.5295 56.3637 30.4429C56.718 30.3517 57.0723 30.3061 57.4266 30.3061C58.1444 30.3061 58.6781 30.4657 59.0232 30.7802C59.3683 31.0947 59.5431 31.6007 59.5431 32.2982V36.3735H58.8667ZM56.8054 35.7353C57.376 35.7353 57.8223 35.5803 58.1444 35.2703C58.4711 34.9603 58.6321 34.5273 58.6321 33.9712V33.4332L57.7211 33.4697C56.9941 33.4971 56.4742 33.6065 56.1521 33.8025C55.83 33.9985 55.6689 34.3085 55.6689 34.7279C55.6689 35.0561 55.7702 35.3022 55.968 35.4754C56.1659 35.6532 56.4465 35.7353 56.8054 35.7353Z" fill="#F45B45"/>
<path d="M65.3545 36.4831C64.9634 36.4831 64.6046 36.4101 64.2779 36.2688C63.9512 36.1275 63.6797 35.9041 63.4589 35.6078H63.3945C63.4405 35.9543 63.4589 36.287 63.4589 36.597V39.054H62.5479V30.402H63.2886L63.4175 31.218H63.4635C63.6981 30.8898 63.9696 30.6528 64.2825 30.5114C64.5954 30.3656 64.9496 30.2926 65.3545 30.2926C66.1551 30.2926 66.7717 30.5616 67.2042 31.104C67.6367 31.6465 67.853 32.4032 67.853 33.3833C67.853 34.3634 67.6321 35.1246 67.1904 35.6671C66.7533 36.2096 66.1413 36.4831 65.3545 36.4831ZM65.2257 31.063C64.6092 31.063 64.1628 31.2317 63.8914 31.569C63.6199 31.9063 63.4773 32.4442 63.4681 33.1827V33.3833C63.4681 34.222 63.6107 34.8238 63.8914 35.1839C64.1721 35.544 64.6276 35.7263 65.2487 35.7263C65.7686 35.7263 66.1781 35.5167 66.4726 35.1018C66.7671 34.687 66.9143 34.1081 66.9143 33.3742C66.9143 32.6311 66.7671 32.0568 66.4726 31.6602C66.1781 31.2636 65.7594 31.063 65.2257 31.063Z" fill="#F45B45"/>
<path d="M72.0305 33.3195L69.937 30.4066H70.9769L72.5643 32.695L74.147 30.4066H75.1731L73.0796 33.3195L75.2835 36.3783H74.2483L72.5597 33.9577L70.8526 36.3783H69.8174L72.0305 33.3195Z" fill="#F45B45"/>
<path d="M78.4638 30.4019V34.1901L78.427 35.1793L78.4132 35.4892L81.6754 30.4019H82.8119V36.3736H81.9607V32.7222L81.9791 32.002L82.0067 31.2954L78.7537 36.3736H77.6172V30.4019H78.4638V30.4019Z" fill="#F45B45"/>
<path d="M89.9342 31.1769H87.9741V36.3736H87.0631V31.1769H85.126V30.4019H89.9342V31.1769Z" fill="#F45B45"/>
<path d="M94.8022 36.4829C93.9096 36.4829 93.2102 36.214 92.6949 35.6761C92.1795 35.1382 91.9219 34.3906 91.9219 33.4378C91.9219 32.476 92.1611 31.7102 92.6397 31.1449C93.1182 30.5797 93.7623 30.297 94.5675 30.297C95.3221 30.297 95.9203 30.5432 96.362 31.0355C96.8037 31.5278 97.0245 32.1751 97.0245 32.982V33.5564H92.8743C92.8927 34.2584 93.0722 34.7872 93.408 35.1518C93.7485 35.5165 94.227 35.6943 94.839 35.6943C95.4878 35.6943 96.1273 35.5621 96.7623 35.2931V36.1C96.4402 36.2368 96.1365 36.337 95.8466 36.3963C95.5522 36.451 95.2071 36.4829 94.8022 36.4829ZM94.5537 31.0492C94.0706 31.0492 93.6841 31.2042 93.3942 31.5187C93.1044 31.8287 92.9387 32.2617 92.8835 32.8133H96.0353C96.0353 32.2435 95.9065 31.8059 95.6488 31.505C95.3957 31.2042 95.0276 31.0492 94.5537 31.0492Z" fill="#F45B45"/>
<path d="M103.213 30.4019H104.216L101.616 33.2829L104.432 36.3736H103.365L100.613 33.3513V36.3736H99.7021V30.4019H100.613V33.3057L103.213 30.4019Z" fill="#F45B45"/>
<path d="M110.736 31.1769H108.776V36.3736H107.865V31.1769H105.928V30.4019H110.736V31.1769Z" fill="#F45B45"/>
<path d="M112.098 30.4021H113.078L114.398 33.8073C114.688 34.5868 114.868 35.1475 114.937 35.4894H114.983C115.029 35.3025 115.13 34.9879 115.282 34.5366C115.433 34.0854 115.93 32.7087 116.772 30.3976H117.752L115.162 37.1988C114.904 37.8689 114.605 38.3475 114.265 38.6302C113.924 38.9128 113.501 39.0541 113.004 39.0541C112.723 39.0541 112.452 39.0222 112.18 38.9629V38.2381C112.383 38.2837 112.608 38.302 112.857 38.302C113.483 38.302 113.929 37.9555 114.2 37.2535L114.536 36.4056L112.098 30.4021Z" fill="#F45B45"/>
<path d="M122.662 36.4831C122.271 36.4831 121.912 36.4101 121.586 36.2688C121.259 36.1275 120.987 35.9041 120.767 35.6078H120.702C120.748 35.9543 120.767 36.287 120.767 36.597V39.054H119.855V30.402H120.596L120.725 31.218H120.771C121.006 30.8898 121.277 30.6528 121.59 30.5114C121.903 30.3656 122.257 30.2926 122.662 30.2926C123.463 30.2926 124.079 30.5616 124.512 31.104C124.944 31.6465 125.161 32.4032 125.161 33.3833C125.161 34.3634 124.94 35.1246 124.498 35.6671C124.061 36.2096 123.444 36.4831 122.662 36.4831ZM122.529 31.063C121.912 31.063 121.466 31.2317 121.194 31.569C120.918 31.9063 120.78 32.4442 120.771 33.1827V33.3833C120.771 34.222 120.914 34.8238 121.194 35.1839C121.475 35.544 121.931 35.7263 122.552 35.7263C123.072 35.7263 123.481 35.5167 123.776 35.1018C124.07 34.687 124.217 34.1081 124.217 33.3742C124.217 32.6311 124.07 32.0568 123.776 31.6602C123.481 31.2636 123.067 31.063 122.529 31.063Z" fill="#F45B45"/>
<path d="M131.593 36.3735L131.414 35.521H131.368C131.069 35.8948 130.77 36.1501 130.471 36.2823C130.172 36.4145 129.799 36.4829 129.353 36.4829C128.754 36.4829 128.285 36.3324 127.949 36.027C127.609 35.7216 127.438 35.2886 127.438 34.7233C127.438 33.5153 128.414 32.8862 130.36 32.827L131.382 32.7951V32.4258C131.382 31.9563 131.28 31.6099 131.078 31.3865C130.876 31.1631 130.549 31.0537 130.103 31.0537C129.601 31.0537 129.03 31.2041 128.396 31.5096L128.115 30.8167C128.414 30.6571 128.736 30.5295 129.09 30.4429C129.445 30.3563 129.799 30.3061 130.153 30.3061C130.871 30.3061 131.405 30.4657 131.75 30.7802C132.095 31.0947 132.27 31.6007 132.27 32.2982V36.3735H131.593ZM129.527 35.7353C130.098 35.7353 130.544 35.5803 130.866 35.2703C131.193 34.9603 131.354 34.5273 131.354 33.9712V33.4332L130.443 33.4697C129.716 33.4971 129.196 33.6065 128.874 33.8025C128.552 33.9985 128.391 34.3085 128.391 34.7279C128.391 35.0561 128.492 35.3022 128.69 35.4754C128.892 35.6532 129.169 35.7353 129.527 35.7353Z" fill="#F45B45"/>
<path d="M50.0053 30.0236H49.4854V36.6836H50.0053V30.0236Z" fill="#F45B45"/>
<path d="M0.87882 37.3856V36.3736H5.08888V37.3856H5.9723V35.5941H5.10728V30.4019H2.06132C2.05211 31.4231 1.90488 32.3758 1.62881 33.2692C1.34814 34.1581 0.966242 34.9331 0.473919 35.5941H0V37.3856H0.87882ZM2.411 33.5655C2.67787 32.7405 2.83431 31.9245 2.88032 31.1176H4.23306V35.5941H1.41716C1.81285 35.0699 2.14414 34.3906 2.411 33.5655Z" fill="#F45B45"/>
</svg>
