<svg width="120" height="35" viewBox="0 0 120 35" fill="none" xmlns="http://www.w3.org/2000/svg">
<path d="M114.773 3.75785H119.058V0.834381H107.152V3.75785H111.437V17.4118H114.779V3.75785H114.773ZM101.303 3.85087C101.898 4.07013 102.493 4.32925 103.081 4.6216L104.164 1.76458C102.62 0.9872 101.082 0.595188 99.5445 0.595188C98.0404 0.595188 96.7301 0.940687 95.6138 1.63169C94.4974 2.32269 93.6417 3.31933 93.0401 4.61496C92.4451 5.91058 92.1443 7.42547 92.1443 9.14633C92.1443 11.8838 92.7526 13.9833 93.9693 15.4451C95.1859 16.9068 96.9374 17.6377 99.2303 17.6377C100.828 17.6377 102.272 17.352 103.569 16.7872V13.8372C101.998 14.4219 100.654 14.7076 99.5445 14.7076C96.904 14.7076 95.587 12.8605 95.587 9.16626C95.587 7.39225 95.9346 6.0036 96.6232 5.01361C97.3117 4.01697 98.2877 3.5253 99.5445 3.5253C100.119 3.51866 100.708 3.63161 101.303 3.85087ZM87.7924 14.5082H82.0568V10.2293H87.398V7.35238H82.0568V3.71134H87.7924V0.834381H78.7077V17.4118H87.7924V14.5082ZM71.7152 16.7141C72.5575 15.9235 72.9787 14.774 72.9787 13.2658V1.16659H69.6362V13.2857C69.6362 14.083 69.4758 14.6677 69.1616 15.0398C68.8474 15.4118 68.3193 15.6045 67.5907 15.6045C67.116 15.6045 66.5946 15.5447 66.0197 15.4251V17.7108C66.5813 17.8436 67.2364 17.9034 67.9918 17.9034C69.6296 17.8968 70.8729 17.5048 71.7152 16.7141ZM53.2181 4.9073C53.8933 3.97046 54.896 3.49872 56.2263 3.49872C58.8802 3.49872 60.2039 5.36576 60.2039 9.09982C60.2039 12.8272 58.8669 14.6876 56.1996 14.6876C54.8693 14.6876 53.8733 14.2225 53.2048 13.2791C52.5363 12.3422 52.202 10.9469 52.202 9.09318C52.202 7.24608 52.543 5.85078 53.2181 4.9073ZM61.7882 2.7745C60.5047 1.30612 58.653 0.575256 56.2263 0.575256C53.8064 0.575256 51.9413 1.30612 50.6444 2.76121C49.3476 4.2163 48.6991 6.32253 48.6991 9.07989C48.6991 11.8373 49.3476 13.9568 50.6378 15.4318C51.9346 16.9068 53.7864 17.6443 56.1996 17.6443C58.6128 17.6443 60.4712 16.9068 61.7681 15.4318C63.065 13.9568 63.7067 11.8505 63.7067 9.10646C63.7134 6.3491 63.0717 4.24288 61.7882 2.7745ZM38.1771 11.0532L41.9407 17.4118H45.6508C44.9289 16.3221 43.3846 13.9169 41.0115 10.1895C41.9474 9.7576 42.6694 9.16626 43.1774 8.40217C43.6855 7.64473 43.9462 6.77434 43.9462 5.80428C43.9462 4.12993 43.4314 2.88745 42.402 2.06357C41.3725 1.24632 39.7882 0.834381 37.649 0.834381H33.0565V17.4118H36.3989V11.0532H38.1771V11.0532ZM36.3922 3.71134H37.4083C38.4846 3.71134 39.2801 3.87745 39.7949 4.20966C40.3096 4.54187 40.5636 5.09999 40.5636 5.89065C40.5636 6.68132 40.3096 7.26601 39.8082 7.63808C39.3069 8.01016 38.5247 8.1962 37.4685 8.1962H36.3856V3.71134H36.3922ZM26.8128 2.13001C25.8167 1.26626 24.3661 0.834381 22.4475 0.834381H17.4138V17.4118H20.7563V11.5117H22.1935C24.1455 11.5117 25.6563 11.0399 26.7192 10.0965C27.7821 9.15298 28.3102 7.78426 28.3102 6.0036C28.3035 4.28939 27.8088 3.0004 26.8128 2.13001ZM20.7563 3.71134H22.2737C23.1896 3.71134 23.8581 3.91067 24.2859 4.30268C24.7137 4.69469 24.9276 5.30596 24.9276 6.12984C24.9276 6.94709 24.6736 7.565 24.1589 7.99687C23.6508 8.42211 22.8754 8.64137 21.8526 8.64137H20.7496V3.71134H20.7563ZM13.6703 9.77089H7.88115V12.608H13.6703V9.77089ZM4.13092 0.834381H0.788467V17.4118H4.13092V0.834381Z" fill="white"/>
<path d="M8.3046 26.3617V29.771L8.27125 30.6613L8.25874 30.9403L11.2146 26.3617H12.2443V31.7362H11.473V28.4499L11.4897 27.8017L11.5147 27.1658L8.56725 31.7362H7.53751V26.3617H8.3046V26.3617Z" fill="#F45B45"/>
<path d="M16.0588 28.5937C17.0927 28.5937 17.6097 28.3147 17.6097 27.7485C17.6097 27.2193 17.1928 26.9526 16.3548 26.9526C16.1005 26.9526 15.8671 26.9731 15.6586 27.0224C15.4502 27.0675 15.175 27.1577 14.8373 27.2972L14.5413 26.6367C15.1041 26.3864 15.7211 26.2634 16.3882 26.2634C17.0177 26.2634 17.5096 26.3905 17.8724 26.6449C18.2351 26.8993 18.4143 27.2439 18.4143 27.6829C18.4143 28.286 18.0725 28.6798 17.3929 28.8644V28.9055C17.8098 29.0285 18.1183 29.2009 18.3101 29.4224C18.5019 29.648 18.5978 29.927 18.5978 30.2634C18.5978 30.7599 18.3935 31.1455 17.9891 31.4245C17.5805 31.6994 17.0219 31.8388 16.3048 31.8388C15.5169 31.8388 14.9082 31.724 14.483 31.4901V30.7434C15.0916 31.0265 15.7045 31.166 16.3257 31.166C16.8051 31.166 17.1636 31.084 17.4096 30.924C17.6556 30.764 17.7765 30.5301 17.7765 30.2265C17.7765 29.6029 17.2595 29.2911 16.2256 29.2911H15.4668V28.5978H16.0588V28.5937Z" fill="#F45B45"/>
<path d="M24.3219 31.7361L24.1593 30.9689H24.1176C23.8466 31.3054 23.5757 31.5351 23.3047 31.6541C23.0337 31.7731 22.696 31.8346 22.2916 31.8346C21.7496 31.8346 21.3244 31.6992 21.0201 31.4243C20.7115 31.1495 20.5573 30.7597 20.5573 30.251C20.5573 29.1638 21.4411 28.5976 23.2046 28.5443L24.1301 28.5156V28.1832C24.1301 27.7607 24.0384 27.4489 23.855 27.2478C23.6715 27.0468 23.3755 26.9483 22.9711 26.9483C22.5167 26.9483 21.9998 27.0837 21.4244 27.3586L21.1701 26.735C21.4411 26.5914 21.733 26.4765 22.054 26.3986C22.375 26.3165 22.696 26.2755 23.017 26.2755C23.6674 26.2755 24.151 26.4191 24.4637 26.7022C24.7763 26.9853 24.9348 27.4407 24.9348 28.0684V31.7361H24.3219ZM22.4542 31.1618C22.9712 31.1618 23.3755 31.0223 23.6674 30.7433C23.9634 30.4643 24.1093 30.0746 24.1093 29.574V29.0899L23.2838 29.1227C22.6251 29.1474 22.154 29.2458 21.8622 29.4222C21.5704 29.5987 21.4244 29.8776 21.4244 30.2551C21.4244 30.5505 21.5162 30.772 21.6954 30.9279C21.8747 31.0879 22.129 31.1618 22.4542 31.1618Z" fill="#F45B45"/>
<path d="M28.4369 26.3618V29.7711L28.4035 30.6614L28.391 30.9403L31.3468 26.3618H32.3766V31.7363H31.6011V28.45L31.6178 27.8018L31.6428 27.1659L28.6953 31.7363H27.6656V26.3618H28.4369V26.3618ZM30.0002 25.652C29.3874 25.652 28.9371 25.5372 28.6536 25.2992C28.3702 25.0654 28.2117 24.6797 28.1784 24.1464H28.958C28.9872 24.4869 29.0789 24.7248 29.229 24.8561C29.379 24.9874 29.6417 25.0572 30.0169 25.0572C30.3588 25.0572 30.6131 24.9833 30.7757 24.8397C30.9383 24.6961 31.0425 24.4623 31.0758 24.1423H31.8596C31.8179 24.6592 31.6512 25.0407 31.3552 25.2828C31.0633 25.529 30.6089 25.652 30.0002 25.652Z" fill="#F45B45"/>
<path d="M35.9743 26.3617V28.6099H39.0343V26.3617H39.8598V31.7362H39.0343V29.3156H35.9743V31.7362H35.1488V26.3617H35.9743V26.3617Z" fill="#F45B45"/>
<path d="M53.3381 31.7361L53.1755 30.9689H53.1338C52.8628 31.3054 52.5918 31.5351 52.3209 31.6541C52.0499 31.7731 51.7122 31.8346 51.3078 31.8346C50.7658 31.8346 50.3406 31.6992 50.0362 31.4243C49.7277 31.1495 49.5735 30.7597 49.5735 30.251C49.5735 29.1638 50.4573 28.5976 52.2208 28.5443L53.1463 28.5156V28.1832C53.1463 27.7607 53.0546 27.4489 52.8712 27.2478C52.6877 27.0468 52.3917 26.9483 51.9873 26.9483C51.5329 26.9483 51.016 27.0837 50.4406 27.3586L50.1863 26.735C50.4573 26.5914 50.7491 26.4765 51.0702 26.3986C51.3912 26.3165 51.7122 26.2755 52.0332 26.2755C52.6836 26.2755 53.1672 26.4191 53.4798 26.7022C53.7925 26.9853 53.9509 27.4407 53.9509 28.0684V31.7361H53.3381ZM51.4704 31.1618C51.9873 31.1618 52.3917 31.0223 52.6836 30.7433C52.9796 30.4643 53.1255 30.0746 53.1255 29.574V29.0899L52.3 29.1227C51.6413 29.1474 51.1702 29.2458 50.8784 29.4222C50.5866 29.5987 50.4406 29.8776 50.4406 30.2551C50.4406 30.5505 50.5324 30.772 50.7116 30.9279C50.8909 31.0879 51.1452 31.1618 51.4704 31.1618Z" fill="#F45B45"/>
<path d="M59.2165 31.8347C58.8621 31.8347 58.537 31.7691 58.241 31.6419C57.945 31.5147 57.699 31.3137 57.4989 31.047H57.4405C57.4822 31.3588 57.4989 31.6583 57.4989 31.9373V34.1486H56.6734V26.3618H57.3446L57.4614 27.0962H57.5031C57.7157 26.8008 57.9617 26.5875 58.2451 26.4603C58.5286 26.329 58.8496 26.2634 59.2165 26.2634C59.9419 26.2634 60.5006 26.5054 60.8924 26.9936C61.2843 27.4818 61.4803 28.1629 61.4803 29.045C61.4803 29.927 61.2802 30.6122 60.8799 31.1004C60.4839 31.5886 59.9294 31.8347 59.2165 31.8347ZM59.0998 26.9567C58.5411 26.9567 58.1367 27.1085 57.8908 27.4121C57.6448 27.7157 57.5156 28.1998 57.5072 28.8644V29.045C57.5072 29.7998 57.6365 30.3414 57.8908 30.6655C58.1451 30.9896 58.5578 31.1537 59.1206 31.1537C59.5917 31.1537 59.9628 30.965 60.2296 30.5916C60.4964 30.2183 60.6298 29.6973 60.6298 29.0367C60.6298 28.368 60.4964 27.8511 60.2296 27.4942C59.9628 27.1372 59.5834 26.9567 59.0998 26.9567Z" fill="#F45B45"/>
<path d="M65.2656 28.9876L63.3687 26.366H64.3109L65.7492 28.4255L67.1833 26.366H68.113L66.2161 28.9876L68.213 31.7404H67.275L65.745 29.5619L64.1983 31.7404H63.2603L65.2656 28.9876Z" fill="#F45B45"/>
<path d="M71.094 26.3617V29.771L71.0607 30.6613L71.0482 30.9403L74.004 26.3617H75.0338V31.7362H74.2625V28.4499L74.2792 27.8017L74.3042 27.1658L71.3567 31.7362H70.3269V26.3617H71.094V26.3617Z" fill="#F45B45"/>
<path d="M81.4875 27.0591H79.7115V31.7362H78.886V27.0591H77.1309V26.3617H81.4875V27.0591Z" fill="#F45B45"/>
<path d="M85.8982 31.8346C85.0895 31.8346 84.4558 31.5925 83.9888 31.1084C83.5219 30.6243 83.2885 29.9514 83.2885 29.094C83.2885 28.2283 83.5052 27.5391 83.9388 27.0304C84.3724 26.5216 84.956 26.2673 85.6856 26.2673C86.3693 26.2673 86.9113 26.4888 87.3115 26.9319C87.7117 27.375 87.9119 27.9576 87.9119 28.6837V29.2007H84.1514C84.1681 29.8325 84.3307 30.3084 84.635 30.6366C84.9435 30.9648 85.3771 31.1248 85.9316 31.1248C86.5194 31.1248 87.0989 31.0058 87.6742 30.7638V31.4899C87.3824 31.613 87.1072 31.7033 86.8446 31.7566C86.5778 31.8058 86.2651 31.8346 85.8982 31.8346ZM85.6731 26.9442C85.2354 26.9442 84.8852 27.0837 84.6225 27.3668C84.3599 27.6458 84.2098 28.0355 84.1598 28.5319H87.0155C87.0155 28.0191 86.8988 27.6253 86.6653 27.3545C86.436 27.0837 86.1025 26.9442 85.6731 26.9442Z" fill="#F45B45"/>
<path d="M93.5191 26.3617H94.4279L92.0724 28.9546L94.6239 31.7362H93.6567L91.1636 29.0161V31.7362H90.3381V26.3617H91.1636V28.9751L93.5191 26.3617Z" fill="#F45B45"/>
<path d="M100.335 27.0591H98.5593V31.7362H97.7338V27.0591H95.9786V26.3617H100.335V27.0591Z" fill="#F45B45"/>
<path d="M101.569 26.3619H102.457L103.654 29.4266C103.917 30.1281 104.079 30.6327 104.142 30.9404H104.183C104.225 30.7722 104.317 30.4891 104.454 30.083C104.592 29.6768 105.042 28.4378 105.805 26.3578H106.693L104.346 32.4789C104.113 33.082 103.842 33.5128 103.533 33.7671C103.225 34.0215 102.841 34.1487 102.391 34.1487C102.136 34.1487 101.89 34.12 101.644 34.0666V33.4143C101.828 33.4553 102.032 33.4718 102.257 33.4718C102.824 33.4718 103.229 33.1599 103.475 32.5281L103.779 31.7651L101.569 26.3619Z" fill="#F45B45"/>
<path d="M111.141 31.8347C110.787 31.8347 110.462 31.7691 110.166 31.6419C109.87 31.5147 109.624 31.3137 109.424 31.047H109.365C109.407 31.3588 109.424 31.6583 109.424 31.9373V34.1486H108.598V26.3618H109.269L109.386 27.0962H109.428C109.64 26.8008 109.886 26.5875 110.17 26.4603C110.453 26.329 110.774 26.2634 111.141 26.2634C111.867 26.2634 112.425 26.5054 112.817 26.9936C113.209 27.4818 113.405 28.1629 113.405 29.045C113.405 29.927 113.205 30.6122 112.805 31.1004C112.409 31.5886 111.85 31.8347 111.141 31.8347ZM111.02 26.9567C110.462 26.9567 110.057 27.1085 109.811 27.4121C109.561 27.7157 109.436 28.1998 109.428 28.8644V29.045C109.428 29.7998 109.557 30.3414 109.811 30.6655C110.066 30.9896 110.478 31.1537 111.041 31.1537C111.512 31.1537 111.883 30.965 112.15 30.5916C112.417 30.2183 112.55 29.6973 112.55 29.0367C112.55 28.368 112.417 27.8511 112.15 27.4942C111.883 27.1372 111.508 26.9567 111.02 26.9567Z" fill="#F45B45"/>
<path d="M119.233 31.7361L119.071 30.9689H119.029C118.758 31.3054 118.487 31.5351 118.216 31.6541C117.945 31.7731 117.607 31.8346 117.203 31.8346C116.661 31.8346 116.236 31.6992 115.931 31.4243C115.623 31.1495 115.469 30.7597 115.469 30.251C115.469 29.1638 116.353 28.5976 118.116 28.5443L119.042 28.5156V28.1832C119.042 27.7607 118.95 27.4489 118.766 27.2478C118.583 27.0468 118.287 26.9483 117.883 26.9483C117.428 26.9483 116.911 27.0837 116.336 27.3586L116.082 26.735C116.353 26.5914 116.644 26.4765 116.965 26.3986C117.286 26.3206 117.607 26.2755 117.928 26.2755C118.579 26.2755 119.062 26.4191 119.375 26.7022C119.688 26.9853 119.846 27.4407 119.846 28.0684V31.7361H119.233ZM117.361 31.1618C117.878 31.1618 118.283 31.0223 118.575 30.7433C118.871 30.4643 119.017 30.0746 119.017 29.574V29.0899L118.191 29.1227C117.532 29.1474 117.061 29.2458 116.769 29.4222C116.478 29.5987 116.332 29.8776 116.332 30.2551C116.332 30.5505 116.423 30.772 116.603 30.9279C116.786 31.0879 117.036 31.1618 117.361 31.1618Z" fill="#F45B45"/>
<path d="M45.3088 26.0212H44.8377V32.0151H45.3088V26.0212Z" fill="#F45B45"/>
<path d="M0.796279 32.6469V31.7362H4.61092V32.6469H5.41136V31.0346H4.62759V26.3617H1.86771C1.85937 27.2807 1.72597 28.1381 1.47583 28.9423C1.22152 29.7423 0.87549 30.4397 0.429407 31.0346H0V32.6469H0.796279ZM2.18456 29.2089C2.42636 28.4664 2.5681 27.732 2.60979 27.0058H3.83548V31.0346H1.28405C1.64259 30.5628 1.94275 29.9515 2.18456 29.2089Z" fill="#F45B45"/>
</svg>
