<svg width="114" height="130" viewBox="0 0 114 130" fill="none" xmlns="http://www.w3.org/2000/svg">
<rect width="114" height="130" fill="#F3F3F3"/>
<path d="M59.0787 66.1007C68.7418 66.1007 76.5753 58.2685 76.5753 48.607C76.5753 38.9455 68.7418 31.1133 59.0787 31.1133C49.4155 31.1133 41.582 38.9455 41.582 48.607C41.582 58.2685 49.4155 66.1007 59.0787 66.1007Z" fill="white"/>
<path d="M32.834 106.271V93.1511C32.834 78.735 44.4984 67.0725 58.9169 67.0725C73.3355 67.0725 84.9999 78.735 84.9999 93.1511V106.271" fill="white"/>
<g clip-path="url(#clip0_3023_42)">
<path d="M54.5808 61.8026C64.1895 61.8026 71.979 53.8977 71.979 44.1465C71.979 34.3954 64.1895 26.4905 54.5808 26.4905C44.972 26.4905 37.1826 34.3954 37.1826 44.1465C37.1826 53.8977 44.972 61.8026 54.5808 61.8026Z" stroke="#404040" stroke-miterlimit="10" stroke-linecap="round"/>
<path d="M28.4834 102.346V89.104C28.4834 74.5541 40.0822 62.7834 54.4196 62.7834C68.7569 62.7834 80.3557 74.5541 80.3557 89.104V102.346" stroke="#404040" stroke-miterlimit="10" stroke-linecap="round"/>
</g>
<defs>
<clipPath id="clip0_3023_42">
<rect width="53" height="77" fill="white" transform="translate(28 26)"/>
</clipPath>
</defs>
</svg>
