<svg width="114" height="130" viewBox="0 0 114 130" fill="none" xmlns="http://www.w3.org/2000/svg">
<rect width="114" height="130" fill="#F3F3F3"/>
<path d="M82.7945 104H26.2055C23.3509 104 21 101.651 21 98.7991V33.2009C21 30.3488 23.3509 28 26.2055 28H82.7945C85.6491 28 88 30.3488 88 33.2009V98.7991C88 101.651 85.6491 104 82.7945 104Z" fill="white"/>
<g clip-path="url(#clip0_3023_45)">
<path d="M91.8917 46.0212V85.2949C91.8917 87.6212 89.9532 89.537 87.5993 89.537H40.9378C38.584 89.537 36.6455 87.6212 36.6455 85.2949V31.6527C36.6455 29.3264 38.584 27.4106 40.9378 27.4106H74.9994C76.2455 27.4106 77.3532 27.958 78.184 28.7791L90.784 43.1475C91.4763 43.9685 91.8917 44.9264 91.8917 46.0212Z" stroke="#404040" stroke-miterlimit="10"/>
<path d="M84.9688 89.2632V92.1369C84.9688 94.4632 83.0303 96.379 80.6765 96.379H34.015C31.6611 96.379 29.7227 94.4632 29.7227 92.1369V38.4948C29.7227 36.1685 31.6611 34.2527 34.015 34.2527H36.9229" stroke="#404040" stroke-miterlimit="10"/>
<path d="M91.8922 45.7475H73.6152V27.4106" stroke="#404040" stroke-miterlimit="10"/>
<path d="M46.519 55.1162H82.0633" stroke="#404040" stroke-miterlimit="10" stroke-linecap="round"/>
<path d="M46.519 62.3721H82.0633" stroke="#404040" stroke-miterlimit="10" stroke-linecap="round"/>
<path d="M46.519 68.7209H82.0633" stroke="#404040" stroke-miterlimit="10" stroke-linecap="round"/>
<path d="M46.519 75.0698H82.0633" stroke="#404040" stroke-miterlimit="10" stroke-linecap="round"/>
</g>
<defs>
<clipPath id="clip0_3023_45">
<rect width="72" height="78" fill="white" transform="translate(21 27)"/>
</clipPath>
</defs>
</svg>
