<svg width="114" height="130" viewBox="0 0 114 130" fill="none" xmlns="http://www.w3.org/2000/svg">
<rect width="114" height="130" fill="#F3F3F3"/>
<path d="M57 92C71.3594 92 83 80.3594 83 66C83 51.6406 71.3594 40 57 40C42.6406 40 31 51.6406 31 66C31 80.3594 42.6406 92 57 92Z" fill="white"/>
<path d="M56.5446 98.747C74.8818 98.747 89.747 83.8818 89.747 65.5446C89.747 47.2075 74.8818 32.3423 56.5446 32.3423C38.2075 32.3423 23.3423 47.2075 23.3423 65.5446C23.3423 83.8818 38.2075 98.747 56.5446 98.747Z" stroke="#404040" stroke-miterlimit="10"/>
<path d="M85.1827 90.6926C85.1827 91.677 84.3772 92.4825 83.3928 92.4825H31.4862C30.5017 92.4825 29.6963 91.677 29.6963 90.6926V38.786C29.6963 37.8015 30.5017 36.9961 31.4862 36.9961H83.3928C84.3772 36.9961 85.1827 37.8015 85.1827 38.786V90.6926Z" stroke="#404040" stroke-miterlimit="10"/>
<path d="M76.6808 71.1829V83.5331L64.3306 83.6225" stroke="#404040" stroke-miterlimit="10" stroke-linecap="round"/>
<path d="M76.6809 83.5332L55.7393 62.7705" stroke="#404040" stroke-miterlimit="10" stroke-linecap="round"/>
</svg>
