<svg width="114" height="130" viewBox="0 0 114 130" fill="none" xmlns="http://www.w3.org/2000/svg">
<rect width="114" height="130" fill="#F3F3F3"/>
<path d="M24 49.5536L37.1658 34H62.5H87.8342L101 49.5536L62.5 101L24 49.5536Z" fill="white"/>
<path d="M30.1658 34L17 49.5536M30.1658 34L39.342 49.5536M30.1658 34H55.5M17 49.5536H39.342M17 49.5536L55.5 101M94 49.5536L80.8342 34M94 49.5536H71.2591M94 49.5536L55.5 101M80.8342 34H55.5M80.8342 34L71.2591 49.5536M39.342 49.5536L55.5 34M39.342 49.5536H71.2591M39.342 49.5536L55.5 101M55.5 34L71.2591 49.5536M71.2591 49.5536L55.5 101" stroke="#404040"/>
</svg>
