<svg width="141" height="106" viewBox="0 0 141 106" fill="none" xmlns="http://www.w3.org/2000/svg">
<rect y="29" width="141" height="77" fill="#F3F3F3"/>
<path d="M73.4404 45.4631C84.4597 45.4631 93.3926 36.5317 93.3926 25.5143C93.3926 14.4968 84.4597 5.56543 73.4404 5.56543C62.4212 5.56543 53.4883 14.4968 53.4883 25.5143C53.4883 36.5317 62.4212 45.4631 73.4404 45.4631Z" fill="white"/>
<path d="M43.5127 91.2715V76.3098C43.5127 59.8705 56.8141 46.5713 73.2562 46.5713C89.6982 46.5713 103 59.8705 103 76.3098V91.2715" fill="white"/>
<path d="M68.5927 40.4523C79.6518 40.4523 88.617 31.5208 88.617 20.5032C88.617 9.48569 79.6518 0.554199 68.5927 0.554199C57.5335 0.554199 48.5684 9.48569 48.5684 20.5032C48.5684 31.5208 57.5335 40.4523 68.5927 40.4523Z" stroke="#404040" stroke-miterlimit="10" stroke-linecap="round"/>
<path d="M38.5562 86.2612V71.2994C38.5562 54.8599 51.9057 41.5605 68.4072 41.5605C84.9087 41.5605 98.2583 54.8599 98.2583 71.2994V86.2612" stroke="#404040" stroke-miterlimit="10" stroke-linecap="round"/>
</svg>
