<svg width="141" height="109" viewBox="0 0 141 109" fill="none" xmlns="http://www.w3.org/2000/svg">
<rect y="32" width="141" height="77" fill="#F3F3F3"/>
<path d="M71.5 79C90.0015 79 105 64.0015 105 45.5C105 26.9985 90.0015 12 71.5 12C52.9985 12 38 26.9985 38 45.5C38 64.0015 52.9985 79 71.5 79Z" fill="white"/>
<path d="M70.5576 87.3839C94.2099 87.3839 113.384 68.2099 113.384 44.5576C113.384 20.9054 94.2099 1.73145 70.5576 1.73145C46.9054 1.73145 27.7314 20.9054 27.7314 44.5576C27.7314 68.2099 46.9054 87.3839 70.5576 87.3839Z" stroke="#404040" stroke-miterlimit="10"/>
<path d="M107.497 76.9948C107.497 78.2646 106.458 79.3035 105.188 79.3035H38.2359C36.9662 79.3035 35.9272 78.2646 35.9272 76.9948V10.0428C35.9272 8.77304 36.9662 7.73413 38.2359 7.73413H105.188C106.458 7.73413 107.497 8.77304 107.497 10.0428V76.9948Z" stroke="#404040" stroke-miterlimit="10"/>
<path d="M96.5305 51.8301V67.76L80.6006 67.8755" stroke="#404040" stroke-miterlimit="10" stroke-linecap="round"/>
<path d="M96.5307 67.7601L69.519 40.9792" stroke="#404040" stroke-miterlimit="10" stroke-linecap="round"/>
</svg>
