<svg width="141" height="107" viewBox="0 0 141 107" fill="none" xmlns="http://www.w3.org/2000/svg">
<rect y="30" width="141" height="77" fill="#F3F3F3"/>
<rect x="33" y="24" width="74" height="60" fill="white"/>
<path d="M85.5832 27.2999C85.5832 31.2119 82.4119 34.3832 78.4998 34.3832C74.5878 34.3832 71.4165 31.2119 71.4165 27.2999C71.4165 23.3879 74.5878 20.2166 78.4998 20.2166C82.4119 20.2166 85.5832 23.3879 85.5832 27.2999Z" stroke="#404040"/>
<path d="M86.8418 9.4791L78.8793 1.5166L34.896 44.7416H44.3752M111.867 34.5041L122.104 44.7416H112.625M44.3752 44.7416V89.4833H68.2627M44.3752 44.7416H112.625M112.625 44.7416V89.4833H89.1168M89.1168 89.4833V65.9749H68.2627V89.4833M89.1168 89.4833H68.2627" stroke="#404040"/>
<path d="M62.1959 17.8209V5.30835H49.3042V30.3334" stroke="#404040"/>
<path d="M105.042 28.0582L102.008 25.0249" stroke="#404040"/>
<path d="M96.321 19.3376L92.5293 15.5459" stroke="#404040"/>
</svg>
