<svg width="114" height="130" viewBox="0 0 114 130" fill="none" xmlns="http://www.w3.org/2000/svg">
<rect width="114" height="130" fill="#F3F3F3"/>
<rect x="23" y="46" width="58" height="47" fill="white"/>
<path d="M63.9168 48.3C63.9168 51.2915 61.4917 53.7166 58.5002 53.7166C55.5086 53.7166 53.0835 51.2915 53.0835 48.3C53.0835 45.3084 55.5086 42.8833 58.5002 42.8833C61.4917 42.8833 63.9168 45.3084 63.9168 48.3Z" stroke="#404040"/>
<path d="M65.0082 34.3958L58.7957 28.1833L24.479 61.9083H31.8748M84.5332 53.9208L92.5207 61.9083H85.1248M31.8748 61.9083V96.8167H50.5123M31.8748 61.9083H85.1248M85.1248 61.9083V96.8167H66.7832M66.7832 96.8167V78.475H50.5123V96.8167M66.7832 96.8167H50.5123" stroke="#404040"/>
<path d="M45.779 40.9041V31.1416H35.7207V50.6666" stroke="#404040"/>
<path d="M79.2085 48.8916L76.8418 46.5249" stroke="#404040"/>
<path d="M72.4041 42.0875L69.4458 39.1292" stroke="#404040"/>
</svg>
