<svg width="178" height="126" viewBox="0 0 178 126" fill="none" xmlns="http://www.w3.org/2000/svg">
<rect width="178" height="114" fill="#F5F5F5"/>
<path fill-rule="evenodd" clip-rule="evenodd" d="M163.5 17.5H96V14.5H166.5V34H163.5V17.5Z" fill="#A3A3A3"/>
<path fill-rule="evenodd" clip-rule="evenodd" d="M11.5 28.5L51 28.5L51 31.5L14.5 31.5L14.5 71L11.5 71L11.5 28.5Z" fill="#A3A3A3"/>
<path fill-rule="evenodd" clip-rule="evenodd" d="M49.5 65L49.5 102L46.5 102L46.5 65L49.5 65Z" fill="#A3A3A3"/>
<path fill-rule="evenodd" clip-rule="evenodd" d="M122 76.5H85V73.5H122V76.5Z" fill="#A3A3A3"/>
<path fill-rule="evenodd" clip-rule="evenodd" d="M166.5 66L166.5 124L163.5 124L163.5 66L166.5 66Z" fill="#A3A3A3"/>
<path fill-rule="evenodd" clip-rule="evenodd" d="M86.5 48V102H83.5V48H86.5Z" fill="#A3A3A3"/>
<path fill-rule="evenodd" clip-rule="evenodd" d="M14.5 122.5V99H11.5V125.5H147V122.5H14.5Z" fill="#A3A3A3"/>
</svg>
