<svg width="238" height="159" viewBox="0 0 238 159" fill="none" xmlns="http://www.w3.org/2000/svg">
<path fill-rule="evenodd" clip-rule="evenodd" d="M235 75H195V127H235V75ZM192 72V130H238V72H192Z" fill="#545454"/>
<path fill-rule="evenodd" clip-rule="evenodd" d="M216 -2.50344e-07L216 73L213 73L213 -1.19209e-07L216 -2.50344e-07Z" fill="#545454"/>
<path fill-rule="evenodd" clip-rule="evenodd" d="M60.0406 55.5H96.9369V95.2242L160.306 158.5H0.681386V156.619L0 155.945L60.0406 95.2297V55.5ZM62.1669 97.3462L4.65946 155.5H153.056L94.8163 97.3462H62.1669ZM93.9369 94.3462V58.5H63.0406V94.3462H93.9369Z" fill="#545454"/>
<path fill-rule="evenodd" clip-rule="evenodd" d="M79.6814 11L79.6814 57L76.6814 57L76.6814 11L79.6814 11Z" fill="#545454"/>
</svg>
